<?xml version="1.0" encoding="UTF-8"?> <svg xmlns="http://www.w3.org/2000/svg" width="80" height="80" viewBox="0 0 80 80" fill="none"><g clip-path="url(#clip0_347_6855)"><path fill-rule="evenodd" clip-rule="evenodd" d="M36.6084 17.2428L36.3754 16.9839L36.453 17.1651C36.5048 17.2169 36.5566 17.2169 36.6084 17.2428Z" fill="#00BDF2"></path><path fill-rule="evenodd" clip-rule="evenodd" d="M36.1424 16.7508L36.0906 16.7249L36.0388 16.699L36.1424 16.7508Z" fill="#00BDF2"></path><path fill-rule="evenodd" clip-rule="evenodd" d="M35.6505 16.4143C35.7282 16.492 35.8059 16.5438 35.9094 16.5955C35.8317 16.5438 35.7541 16.4661 35.6505 16.4143Z" fill="#00BDF2"></path><path fill-rule="evenodd" clip-rule="evenodd" d="M35.987 16.7508C35.9611 16.7249 35.9611 16.6731 36.0388 16.699L35.8834 16.5955L35.987 16.7508Z" fill="#00BDF2"></path><path fill-rule="evenodd" clip-rule="evenodd" d="M35.9871 16.7507C36.013 16.8025 36.0388 16.8284 36.0388 16.8543L35.9871 16.7507Z" fill="#00BDF2"></path><path fill-rule="evenodd" clip-rule="evenodd" d="M35.5469 17.0873C35.4952 17.0614 35.5987 16.9579 35.4952 16.9061C35.2621 16.7767 35.055 16.7249 34.822 16.6213C34.7185 16.5954 34.6408 16.3883 34.5113 16.3624C34.2524 16.2589 33.5793 16.3365 33.9418 16.4142C34.4854 16.5436 34.822 16.699 35.2621 16.932C35.6246 17.1391 36.013 17.2945 36.3236 17.6051C36.4013 17.6828 36.479 17.7864 36.5566 17.8899C36.479 17.7605 36.3754 17.631 36.2977 17.4757C36.1942 17.2945 35.8576 17.2427 35.5469 17.0873Z" fill="#00BDF2"></path><path fill-rule="evenodd" clip-rule="evenodd" d="M37.7735 19.4691C37.7476 19.4174 37.6699 19.3138 37.6699 19.3138C37.6699 19.029 37.5923 18.7442 37.3851 18.5371V18.6666C37.4628 18.796 37.4887 18.796 37.4887 18.6666C37.5146 19.0031 37.5923 19.2879 37.7217 19.5727C37.7476 19.5727 37.7994 19.5468 37.7735 19.4691Z" fill="#00BDF2"></path><path fill-rule="evenodd" clip-rule="evenodd" d="M37.6958 19.5986L37.7735 19.754L37.7217 19.5986H37.6958Z" fill="#00BDF2"></path><path fill-rule="evenodd" clip-rule="evenodd" d="M34.4595 15.9482C33.7087 15.7152 32.9838 15.5858 32.2589 15.6117C32.2071 15.6376 32.1553 15.6893 32.1035 15.6893L31.9223 15.6634L31.6116 15.6893L31.5081 15.7152C31.4563 15.7411 31.4822 15.767 31.5081 15.767L31.6375 15.8188C31.6116 15.8188 31.5598 15.7929 31.5081 15.767L31.3268 15.7411C31.2492 15.767 31.1456 15.8188 31.042 15.8447C31.1456 15.7929 31.2492 15.767 31.3268 15.7411L31.5081 15.6893L31.5598 15.6634C31.3268 15.6634 31.0938 15.767 30.8608 15.8447L30.7314 15.8965C30.576 15.9741 30.4207 16.0518 30.2912 16.0259L30.1877 16.0777H30.2136H30.1618L29.6699 16.3366L29.411 16.5955C29.411 16.5955 29.3074 16.5955 29.2815 16.6214C29.2556 16.699 29.2297 16.7508 29.178 16.8285C29.2815 16.8026 29.3851 16.7767 29.4628 16.7508C29.5922 16.7249 29.5922 16.4919 29.7993 16.5178C29.5922 16.466 29.5922 16.7249 29.4628 16.7508C29.3851 16.7767 29.2815 16.8026 29.178 16.8285C29.0744 16.9579 28.8932 17.0874 28.6861 17.1651C28.8155 16.9579 28.9967 16.8803 29.178 16.8285C29.2297 16.7767 29.2815 16.699 29.2815 16.6214C29.3333 16.6214 29.411 16.5955 29.411 16.5955L29.6699 16.3366C29.3333 16.4919 29.0744 16.7508 28.7896 16.9838C26.9514 18.589 26.4595 21.3075 27.5987 23.6117C28.1941 24.8544 29.2297 25.8641 30.4725 26.4337C33.0097 27.521 35.9094 26.6149 37.7734 24.4401C38.6019 23.6117 39.0679 21.4628 38.8608 20.4013C38.4207 19.0033 37.877 19.9353 37.8511 19.9612C37.3851 20.7638 37.8511 21.3333 37.1003 22.6278C37.5663 21.7217 37.2815 23.534 36.2977 23.9741C35.1844 24.5955 33.7864 25.7346 32.1812 25.424C31.8187 25.3981 31.4304 25.2427 31.0162 25.1392C28.9967 24.1812 27.5987 21.9029 28.4272 19.5211C28.6343 18.9256 28.8155 18.3819 29.1262 17.89C29.411 17.5793 29.7734 17.3204 30.0582 17.1651C30.4984 16.8803 30.8867 16.6473 31.2751 16.466C30.809 16.6214 30.4984 16.8026 30.0582 17.1392C29.7475 17.3204 30.1618 16.8544 30.3689 16.6732C30.4466 16.5696 30.6537 16.6473 30.7573 16.5955C30.9644 16.5178 31.1456 16.3884 31.3786 16.2589C31.4822 16.1812 31.4822 16.3366 31.534 16.3107C31.8446 16.233 32.1035 16 32.3107 16.0259C32.4919 16 32.6213 16.0777 32.7767 16.1036L33.0615 16.1295L33.2427 16.1036C33.1909 16.0518 33.1909 16 33.165 15.9482C33.165 16 33.1909 16.0777 33.2427 16.1036C33.6828 16.1036 34.2524 16.1295 34.7443 16.2848V16.2589C34.4854 16.1295 34.2006 16.0518 33.9158 15.8706C34.0453 15.9482 34.0194 15.9741 33.8641 15.9482L33.7605 15.8447C34.0194 15.8706 34.3301 15.8965 34.5113 16.0777C34.5113 16.0777 34.6408 16.1036 34.6925 16.1036C34.7702 16.1554 34.7443 16.2071 34.7443 16.2589L34.8997 16.3366C34.7961 16.233 34.4595 15.9482 34.4595 15.9482Z" fill="#00BDF2"></path><path fill-rule="evenodd" clip-rule="evenodd" d="M31.3268 15.7412L31.4822 15.7153C31.2751 15.7153 31.0938 15.8189 30.8867 15.8707C30.9903 15.8966 31.1456 15.8189 31.3268 15.7412Z" fill="#00BDF2"></path><path fill-rule="evenodd" clip-rule="evenodd" d="M26.5372 27.0808L26.9256 27.495C26.8738 27.4174 26.822 27.3138 26.7961 27.2361C26.7185 27.1067 26.6408 27.1067 26.5372 27.0808Z" fill="#0072BC"></path><path fill-rule="evenodd" clip-rule="evenodd" d="M27.3916 27.9094L27.4952 27.9612L27.3398 27.8577L27.3916 27.9094Z" fill="#0072BC"></path><path fill-rule="evenodd" clip-rule="evenodd" d="M28.1683 28.4012C28.0388 28.2977 27.8835 28.1941 27.754 28.1165C27.8576 28.22 27.987 28.3236 28.1683 28.4012Z" fill="#0072BC"></path><path fill-rule="evenodd" clip-rule="evenodd" d="M27.5728 27.8835C27.5987 27.9612 27.5987 27.9871 27.4951 27.9612L27.754 28.1166C27.6505 28.0389 27.5987 27.9612 27.5728 27.8835Z" fill="#0072BC"></path><path fill-rule="evenodd" clip-rule="evenodd" d="M27.5728 27.8834C27.5469 27.8057 27.4951 27.728 27.4951 27.7021L27.5728 27.8834Z" fill="#0072BC"></path><path fill-rule="evenodd" clip-rule="evenodd" d="M28.2977 27.3397C28.3754 27.3656 28.22 27.5468 28.4013 27.6245C28.7896 27.8316 29.1521 27.9093 29.5145 28.0905C29.6958 28.1423 29.8252 28.4789 30.0323 28.5047C30.4725 28.6342 31.5599 28.5824 30.9644 28.4271C30.0841 28.1941 29.4887 27.9611 28.7637 27.5468C28.1165 27.262 27.5728 26.8996 26.9773 26.4335C26.8479 26.2782 26.7443 26.1229 26.6149 25.9675C26.7443 26.1746 26.8479 26.4335 27.0291 26.6407C27.2621 26.9513 27.8317 27.029 28.2977 27.3397Z" fill="#0072BC"></path><path fill-rule="evenodd" clip-rule="evenodd" d="M24.6214 23.3788C24.6732 23.4564 24.7768 23.6377 24.7768 23.6377C24.7509 24.1037 24.9839 24.5438 25.2687 24.9063L25.2946 24.6732C25.1651 24.4402 25.0874 24.4402 25.1392 24.6732C25.0615 24.1296 24.9062 23.6635 24.7509 23.1716C24.6732 23.2234 24.5955 23.2234 24.6214 23.3788Z" fill="#0072BC"></path><path fill-rule="evenodd" clip-rule="evenodd" d="M24.6472 22.8867L24.7508 23.1715V23.1456L24.6472 22.8867Z" fill="#0072BC"></path><path fill-rule="evenodd" clip-rule="evenodd" d="M30.1101 29.1521C31.3269 29.5922 32.5437 29.7734 33.7347 29.7217C33.8124 29.6699 33.89 29.5922 33.9936 29.6181C34.0971 29.644 34.1748 29.6699 34.2784 29.6958C34.4596 29.6958 34.6149 29.644 34.7962 29.6181L34.9774 29.5663C35.0551 29.5145 35.0292 29.4886 34.9774 29.4628L34.7703 29.411C34.7962 29.4369 34.8997 29.4369 34.9774 29.4628C35.0551 29.4886 35.1586 29.4886 35.2622 29.4886C35.4175 29.4369 35.5729 29.3851 35.7282 29.3333C35.547 29.411 35.3916 29.4628 35.2622 29.4886L34.9774 29.5663L34.8997 29.5922C35.2881 29.5404 35.6764 29.4369 36.0648 29.3333C36.1425 29.3074 36.2201 29.2556 36.2978 29.2297C36.5567 29.1003 36.8156 28.945 37.0227 28.9967L37.2298 28.8932H37.1781L37.2557 28.8673C37.5146 28.7378 37.7994 28.6084 38.0583 28.453C38.1878 28.2977 38.3431 28.1424 38.4726 28.0129C38.4726 28.0129 38.6279 27.987 38.7056 27.987C38.7314 27.8835 38.8091 27.7799 38.8868 27.6763C38.7056 27.7281 38.5502 27.754 38.4208 27.7799C38.1878 27.8058 38.1878 28.2459 37.8771 28.1683C38.2136 28.2459 38.1878 27.8058 38.4208 27.7799C38.5502 27.7281 38.7314 27.7022 38.8868 27.6763C39.0939 27.4692 39.3787 27.2362 39.6635 27.1327C39.4823 27.4692 39.1716 27.6246 38.8868 27.6763C38.7832 27.7799 38.7314 27.8835 38.7056 27.987C38.6279 27.987 38.4726 28.0129 38.4726 28.0129C38.3172 28.1424 38.1878 28.3236 38.0583 28.453C38.5761 28.1424 39.068 27.8058 39.534 27.3916C42.5632 24.7249 43.4175 20.2459 41.5276 16.4142C40.5179 14.343 38.8091 12.7119 36.7638 11.754C32.5437 9.88994 27.8318 11.4951 24.6991 15.042C23.3269 16.3883 22.5243 19.9611 22.9127 21.7217C23.6894 24 24.5696 22.4984 24.5955 22.4466C25.3463 21.1521 24.6214 20.1683 25.8641 18.0712C25.0615 19.5469 25.6052 16.5696 27.1845 15.8446C29.0486 14.8608 31.3269 12.9191 33.9677 13.4369C34.5632 13.5404 35.2104 13.6699 35.8836 13.9288C39.2234 15.4822 41.5276 19.288 40.1554 23.1715C39.8188 24.1553 39.5081 25.0874 38.9903 25.864C38.5502 26.4077 37.9289 26.7961 37.4628 27.0809C36.7638 27.5728 36.1166 27.9352 35.4434 28.2459C36.2201 27.9611 36.7379 27.6763 37.437 27.1585C37.9289 26.7961 37.2816 27.6763 36.9192 27.9094C36.7897 28.0388 36.4272 27.9094 36.2719 28.0129C35.9353 28.1683 35.6247 28.3754 35.2622 28.5566C35.1069 28.6602 35.081 28.4013 34.9774 28.453C34.4596 28.6343 34.0454 28.9967 33.6829 28.945C33.3981 28.945 33.1392 28.8673 32.9062 28.8414L32.4402 28.7896L32.1295 28.8155C32.2072 28.8932 32.2072 28.9967 32.2331 29.1003C32.2072 28.9967 32.2072 28.9191 32.1295 28.8155C31.3787 28.8673 30.4467 28.7637 29.6441 28.5048V28.5307C30.1101 28.7119 30.5502 28.8932 31.0162 29.178C30.8091 29.0744 30.8609 29.0226 31.1198 29.0485L31.2751 29.2039C30.8091 29.2039 30.369 29.1003 30.0324 28.7896C30.0324 28.7896 29.8253 28.7637 29.7476 28.7637C29.6182 28.6861 29.67 28.6084 29.67 28.5307L29.3852 28.4272C29.5664 28.7378 30.1101 29.178 30.1101 29.1521Z" fill="#0072BC"></path><path fill-rule="evenodd" clip-rule="evenodd" d="M35.2881 29.4887C35.2104 29.5146 35.1327 29.5405 35.0551 29.5405C35.3916 29.5146 35.7023 29.3852 36.0389 29.3075C35.8318 29.2816 35.5729 29.3852 35.2881 29.4887Z" fill="#0072BC"></path><path fill-rule="evenodd" clip-rule="evenodd" d="M10.8996 38.6278C10.9255 38.6796 11.0032 38.4725 11.0809 39.0938C11.1585 39.7411 10.7184 40.7767 10.6925 41.4239C10.6666 42.0712 10.8479 43.0809 11.4692 43.2103C12.0906 43.3139 12.8155 42.123 13.0485 41.6311C13.2815 41.1392 12.8414 40.932 12.6602 40.5178C12.4789 40.1294 12.6861 39.2233 12.7378 38.4466C12.7896 37.6958 12.9967 37.7735 12.9967 37.7735C14.4725 37.0744 21.4628 36.479 21.2297 30.4207C20.9708 24.3883 13.8511 21.877 13.2556 21.7476C12.6602 21.6181 10.7184 22.1877 11.1327 23.9741C11.2362 24.4401 12.3236 25.9159 12.4272 26.2524C12.5566 26.6408 12.0647 29.0485 11.7799 30.9126C11.4951 32.8026 11.1327 35.9612 11.1585 36.6084C11.1844 37.2298 10.1229 37.4369 9.86405 37.7993C9.63104 38.1359 10.8738 38.6019 10.8996 38.6278ZM14.1618 30.4725C14.3171 29.9029 14.809 28.4272 14.9903 27.3916C15.1456 26.356 13.3851 24.9061 13.4886 24.7508C13.7217 24.4142 14.4984 24.7249 16.3883 26.5631C18.2783 28.4013 19.2103 30.2395 18.8738 32.3883C18.5372 34.5372 13.8252 36.479 13.3074 36.3495C12.7637 36.1942 13.9806 31.0421 14.1618 30.4725Z" fill="#0072BC"></path><path fill-rule="evenodd" clip-rule="evenodd" d="M62.0065 37.5403C61.5146 37.9028 61.3593 38.084 60.9968 38.084C60.6343 38.0581 60.712 37.7734 60.6602 37.7216C60.945 37.3591 61.9029 35.728 61.2039 33.9675C60.5049 32.207 58.3042 33.398 58.2007 33.4756C58.0971 33.5533 57.9677 33.5015 58.0453 33.2685C58.1489 33.0355 58.8997 32.44 57.8123 32.3882C56.7508 32.3365 54.9385 34.6666 53.7994 35.7798C52.6343 36.919 50.356 39.1714 49.5534 39.3785C48.7508 39.5857 49.5275 37.2038 49.7864 35.728C50.0712 34.2523 50.9515 31.6374 51.0292 31.3009C51.1068 30.9384 51.4434 31.0679 51.8576 30.9902C52.2719 30.9125 52.2978 29.8769 52.3495 29.2556C52.3754 28.6342 51.8576 28.5306 51.9353 28.3753C51.9871 28.22 52.712 26.33 51.9094 26.097C51.1068 25.864 50.7185 26.8478 50.356 27.728C49.9936 28.6083 49.7347 28.6342 47.9482 28.6083C46.1359 28.5824 45.178 28.4789 44.9968 29.1002C44.8156 29.7216 44.712 30.7313 45.5664 30.8607C46.4466 31.0161 48.5696 30.7572 48.7508 30.8866C48.958 31.0161 47.767 33.0355 46.7055 34.563C45.644 36.0646 43.7541 38.084 43.2881 38.084C42.822 38.084 42.6667 37.2038 42.4855 36.7636C42.3042 36.3235 42.2266 34.9772 40.9838 34.8219C39.7411 34.6666 38.1101 36.5306 37.7735 36.9708C37.411 37.385 36.6602 38.4724 36.3495 38.4724C36.0389 38.4724 36.7897 36.7895 36.8414 36.6083C36.8932 36.4271 38.5502 33.2167 37.1003 32.5954C35.6505 31.974 33.6829 34.6925 32.4919 36.0128C31.301 37.3332 30.5243 37.9028 30.5243 37.9028C28.945 38.317 30.1101 36.0128 29.2298 35.1585C28.6343 34.563 27.9612 34.8737 27.6246 35.3138C27.2622 35.7539 26.7703 36.6342 26.3042 37.2814C25.8123 37.9546 24.9838 39.1196 24.3366 39.3009C23.7152 39.4821 23.7152 38.1617 23.9224 36.919C24.1295 35.6763 24.7249 33.864 25.0097 32.9578C25.2945 32.0258 24 32.2329 23.301 32.9319C22.602 33.631 20.6084 36.4271 19.8576 37.3332C19.1068 38.2394 18.5631 39.1714 18.356 39.4821C17.7605 40.44 18.4078 40.6989 18.7961 40.1811C19.1586 39.6892 20.9968 37.7992 21.2816 37.6439C21.5923 37.4886 21.6181 38.8866 21.6181 39.4303C21.6181 39.974 21.9029 41.4497 23.2751 41.5015C24.6214 41.5792 26.9774 38.1358 27.1586 37.9287C27.3398 37.7475 27.4693 38.1099 27.4952 38.3688C27.5211 38.6277 27.9094 39.5339 28.6861 39.8704C29.4369 40.1811 30.8091 39.5598 31.4563 39.0161C32.1036 38.4724 33.7864 36.6083 34.123 36.4271C34.4855 36.2458 34.6667 36.453 34.5372 36.9708C34.4078 37.4886 33.3981 39.9222 33.2945 41.2944C33.191 42.6407 34.589 42.0452 35.9353 40.7507C37.2557 39.4562 38.6279 37.6439 39.767 37.5403C40.8803 37.4368 41.89 40.207 42.1489 40.2847C42.4078 40.3365 43.0292 40.5695 44.5049 39.0937C45.9806 37.618 47.5599 35.6504 47.8706 35.5986C48.1813 35.5468 47.767 36.5565 47.3528 38.5242C46.9385 40.4918 46.9126 41.7863 47.8188 42.2782C48.7249 42.7701 49.4499 41.6569 50.5372 40.4659C51.6246 39.275 53.1521 38.1876 53.3593 37.9546C53.5923 37.7216 54.0065 37.8251 53.7217 38.317C53.4369 38.809 53.2039 41.7604 55.534 41.6568C57.8641 41.5533 59.1068 39.7669 59.1068 39.7669C59.1068 39.7669 59.055 40.0517 59.78 40.3106C60.5049 40.5436 61.3592 39.6892 62.3948 38.7313C63.3269 37.7992 62.4984 37.1779 62.0065 37.5403ZM59.2622 37.4627C58.0712 40.1035 56.6991 40.0776 56.1813 39.7928C55.6635 39.508 55.3269 38.7313 56.4919 36.8413C56.5437 36.7636 57.1392 36.6601 57.2686 36.4012C57.3981 36.1423 57.7864 35.4174 58.0971 35.2879C58.2525 35.2361 60.4531 34.8478 59.2622 37.4627Z" fill="#0072BC"></path><path fill-rule="evenodd" clip-rule="evenodd" d="M42.3301 52.2459C42.3301 52.2459 42.5372 45.8252 41.9418 44.7637C41.3463 43.7022 39.6893 44.0129 39.9224 43.2362C40.1554 42.4854 40.8285 41.5275 40.2848 41.1133C39.7411 40.699 38.0324 42.2524 37.3851 43.0032C36.7379 43.7281 36.9968 43.2621 36.7638 43.2621C36.5308 43.2621 35.8317 43.7022 36.0389 44.1424C36.246 44.5566 36.5567 44.5825 36.1165 45.1003C35.7023 45.6181 34.6408 48.3107 34.1489 50.0453C33.6829 51.7799 33.2945 52.9709 32.9062 53.3851C32.5178 53.7993 31.3528 53.5145 31.1457 55.2492C30.9126 56.9579 31.3269 56.6731 31.5599 56.699C31.8188 56.7249 31.8965 56.6213 31.9224 56.7767C31.9482 56.9061 30.3431 61.7734 30.4725 62.2395C30.5761 62.7055 30.602 62.9385 31.1457 62.8867C31.6893 62.8349 31.9224 62.7573 32.4919 60.6861C33.0615 58.6408 33.8382 56.2589 34.1748 55.9741C34.5114 55.6893 36.945 54.9385 38.369 54.6019C39.767 54.2654 39.9741 54.0582 40.1554 54.2136C40.3625 54.343 40.2848 58.123 40.233 59.4433C40.1813 60.7637 39.9224 61.9288 40.5955 61.9029C41.2686 61.877 41.5275 60.7637 41.8382 58.3042C42.1489 55.8705 42.3819 54.6796 42.2266 53.8252C42.0971 52.945 42.9256 53.7476 42.8738 52.7637C42.8738 52.1424 42.3301 52.2459 42.3301 52.2459ZM40.1295 52.1165C40.1295 52.4013 40.0518 52.6861 39.8188 52.712C39.3269 52.7896 35.4434 53.3074 35.2622 53.2815C35.1068 53.2556 35.055 53.2298 35.1068 53.0485C35.3398 52.0647 37.7735 46.5243 38.3431 46.5243C38.9126 46.5243 39.3528 47.0938 39.8965 48.1812C40.466 49.2427 40.1295 51.8317 40.1295 52.1165Z" fill="#0072BC"></path><path fill-rule="evenodd" clip-rule="evenodd" d="M71.1715 56.6214C70.809 56.9321 69.3074 58.5114 68.1164 58.1748C66.8996 57.8382 66.2265 56.1554 66.4854 55.4305C66.7443 54.7056 68.9449 51.7541 70.0582 49.2687C71.1715 46.7832 71.9999 42.7962 71.6116 41.9936C71.2232 41.191 70.3171 41.2687 69.7734 41.6829C69.2297 42.0971 67.1067 45.4628 66.2265 47.8447C65.3462 50.2266 64.7249 52.9968 64.7249 53.903C64.7249 54.5243 64.8284 54.7573 64.699 55.1975C64.4401 56.0001 63.8964 57.0874 62.8349 57.0874C61.7993 57.0874 61.5922 55.6117 61.5922 54.7056C61.5922 53.7735 60.5307 53.8771 60.2459 54.0583C59.9611 54.2136 58.9514 55.767 57.9417 57.0874C56.932 58.4078 56.4142 58.8221 56.0776 58.6149C55.741 58.3819 55.6893 56.492 56.1812 54.835C56.699 53.178 57.4498 51.6764 56.8543 51.5211C56.2588 51.3399 55.5598 51.8835 55.1973 52.246C54.8349 52.6085 51.5986 56.958 50.5889 58.0454C49.5792 59.1068 47.6375 61.1004 47.2232 60.7379C46.809 60.3755 47.0938 59.5729 47.6893 58.8221C48.3106 58.0712 49.5533 56.4143 48.8025 54.2654C48.0776 52.1166 46.7831 52.6344 46.4206 52.6861C46.0582 52.7379 42.3041 56.492 41.9417 56.9839C41.7346 57.2687 41.5274 57.7088 41.6569 58.0454C41.7863 58.3819 42.097 58.589 42.8996 57.8382C43.6763 57.1133 45.4109 55.1457 45.9287 55.3269C46.4724 55.534 47.1456 56.6473 46.7313 57.3204C46.343 57.9936 45.0485 59.8835 45.0744 60.8156C45.1003 61.7476 45.1779 62.3172 45.3333 62.4984C45.4627 62.7056 42.3818 65.5793 41.6828 66.8738C40.9838 68.1683 40.6213 70.0065 42.4077 70.0583C44.22 70.1101 47.6116 67.9612 48.1812 65.7088C48.7507 63.4564 47.8964 63.1975 47.7669 62.3949C47.6375 61.5923 48.0776 61.6182 48.5695 61.2039C49.0873 60.8156 51.4174 58.8221 52.0129 58.123C52.6083 57.424 53.0485 56.725 53.3592 56.8544C53.6698 56.9839 53.2297 60.4013 54.6537 60.5826C56.0776 60.7897 57.2685 59.5988 58.2006 58.356C59.1326 57.1133 59.1844 57.0615 59.3139 57.2428C59.4433 57.424 59.8575 59.3916 61.2038 59.2363C62.5501 59.1068 63.4304 58.3302 63.9482 57.8641C64.4918 57.3981 64.5954 57.1651 64.7766 57.5017C64.9579 57.8382 64.8025 60.1942 67.3397 60.1683C69.877 60.1424 71.4562 58.5114 72.0258 57.3722C72.6731 56.259 71.5339 56.3107 71.1715 56.6214ZM67.9611 48.9321C69.0226 46.5761 69.4886 45.903 69.6698 46.0065C69.8511 46.1101 69.2815 48.1813 68.686 49.4758C68.0905 50.7703 66.9255 52.7638 66.7443 52.5826C66.4336 52.2719 66.8996 51.2881 67.9611 48.9321ZM46.2394 65.9159C45.8252 67.314 44.1682 68.3755 43.6504 68.5049C43.1326 68.6344 42.4854 68.712 43.0032 67.547C43.521 66.3819 45.6439 64.0259 45.9805 64.0259C46.11 64.0259 46.6537 64.5179 46.2394 65.9159Z" fill="#0072BC"></path><path fill-rule="evenodd" clip-rule="evenodd" d="M40 80C17.9417 80 0 62.0583 0 40C0 17.9417 17.9417 0 40 0C62.0583 0 80 17.9417 80 40C80 62.0583 62.0583 80 40 80ZM40 2.8479C19.521 2.8479 2.8479 19.521 2.8479 40C2.8479 60.479 19.521 77.1521 40 77.1521C60.479 77.1521 77.1521 60.479 77.1521 40C77.1521 19.521 60.479 2.8479 40 2.8479Z" fill="#0072BC"></path></g><defs><clipPath id="clip0_347_6855"><rect width="80" height="80" fill="white"></rect></clipPath></defs></svg> 